<svg xmlns="http://www.w3.org/2000/svg" viewBox="0 0 512 383.46"><defs><style>.cls-1{fill:#eb5e28;}</style></defs><title>email-orange_2</title><g id="Capa_2" data-name="Capa 2"><g id="Capa_1-2" data-name="Capa 1"><g id="Capa_2-2" data-name="Capa 2"><g id="Capa_1-2-2" data-name="Capa 1-2"><path class="cls-1" d="M230.9,189.11c13.37,8.91,36.83,8.91,50.2,0h0L509,37.19A55.22,55.22,0,0,0,456.83,0H55.17A55.26,55.26,0,0,0,3,37.19L230.89,189.1Z"/><path class="cls-1" d="M297.75,214.06h0c-11.7,7.8-26.72,11.7-41.74,11.7s-30-3.9-41.74-11.7h0L0,71.23V328.3a55.23,55.23,0,0,0,55.17,55.16H456.84A55.22,55.22,0,0,0,512,328.3V71.23Z"/></g></g></g></g></svg>